Coordinates
version=1
nRows=65
nColumns=12
inDegrees=yes

Units are S.I. units (second, meters, Newtons, ...)
Angles are in degrees

endheader
time	SC_y	SC_z	SC_x	AC_y	AC_z	AC_x	GH_y	GH_z	GH_yy	EL_x	PS_y
       0.0              -53.08          27.35           43.3          39.84          7.213          13.02         -64.12          63.47          -35.5          17.98          49.54
   0.03555              -53.08          27.35           43.3          39.84           7.21          13.02         -64.11          63.46         -35.49          17.99          49.54
   0.07111              -53.08          27.34          43.31          39.84          7.206          13.02          -64.1          63.46         -35.48           18.0          49.54
    0.1067              -53.08          27.34          43.31          39.84          7.203          13.02         -64.08          63.45         -35.47          18.01          49.55
    0.1422              -53.08          27.33          43.31          39.84          7.199          13.01         -64.07          63.45         -35.46          18.02          49.55
    0.1778              -53.08          27.33          43.31          39.84          7.195          13.01         -64.05          63.44         -35.45          18.03          49.56
    0.2133              -53.08          27.32          43.32          39.84          7.191          13.01         -64.04          63.44         -35.44          18.04          49.56
    0.2489              -53.09          27.32          43.32          39.84          7.187          13.01         -64.02          63.43         -35.43          18.05          49.57
    0.2844              -53.09          27.31          43.32          39.84          7.182           13.0          -64.0          63.43         -35.42          18.06          49.58
      0.32              -53.09          27.31          43.33          39.84          7.177           13.0         -63.98          63.42          -35.4          18.07          49.58
    0.3555              -53.09           27.3          43.33          39.84          7.171           13.0         -63.96          63.41         -35.39          18.08          49.59
    0.3911              -53.09          27.29          43.33          39.84          7.165          12.99         -63.94           63.4         -35.37           18.1           49.6
    0.4266              -53.09          27.28          43.34          39.84          7.159          12.99         -63.91           63.4         -35.36          18.11          49.61
    0.4622               -53.1          27.28          43.34          39.84          7.152          12.99         -63.89          63.39         -35.34          18.13          49.62
    0.4978               -53.1          27.27          43.35          39.83          7.144          12.98         -63.86          63.38         -35.32          18.15          49.63
    0.5333               -53.1          27.26          43.35          39.83          7.136          12.98         -63.83          63.37          -35.3          18.17          49.64
    0.5689               -53.1          27.25          43.36          39.83          7.127          12.97         -63.79          63.35         -35.27          18.19          49.65
    0.6044              -53.11          27.23          43.36          39.83          7.118          12.97         -63.75          63.34         -35.25          18.21          49.66
      0.64              -53.11          27.22          43.37          39.83          7.107          12.96         -63.71          63.33         -35.22          18.24          49.68
    0.6755              -53.11          27.21          43.38          39.83          7.096          12.95         -63.67          63.31         -35.19          18.27          49.69
    0.7111              -53.12          27.19          43.39          39.83          7.083          12.94         -63.62           63.3         -35.16           18.3          49.71
    0.7466              -53.12          27.17           43.4          39.82          7.069          12.94         -63.57          63.28         -35.12          18.33          49.73
    0.7822              -53.13          27.16          43.41          39.82          7.054          12.93         -63.51          63.26         -35.08          18.37          49.75
    0.8177              -53.13          27.13          43.42          39.82          7.037          12.92         -63.44          63.24         -35.03          18.41          49.77
    0.8533              -53.14          27.11          43.43          39.82          7.018          12.91         -63.37          63.21         -34.98          18.45          49.79
    0.8888              -53.14          27.09          43.44          39.81          6.997          12.89         -63.29          63.18         -34.93           18.5          49.82
    0.9244              -53.15          27.06          43.46          39.81          6.973          12.88          -63.2          63.15         -34.87          18.56          49.85
      0.96              -53.16          27.02          43.48          39.81          6.947          12.86         -63.09          63.12          -34.8          18.63          49.89
    0.9955              -53.17          26.99           43.5           39.8          6.917          12.85         -62.98          63.08         -34.72           18.7          49.93
     1.031              -53.18          26.95          43.52           39.8          6.882          12.83         -62.84          63.03         -34.63          18.78          49.97
     1.067              -53.19           26.9          43.54          39.79          6.844           12.8         -62.69          62.98         -34.53          18.88          50.02
     1.102               -53.2          26.84          43.57          39.79          6.799          12.78         -62.52          62.92         -34.41          18.98          50.08
     1.138              -53.22          26.78          43.61          39.78          6.747          12.75         -62.32          62.86         -34.27          19.11          50.15
     1.173              -53.24          26.71          43.65          39.77          6.687          12.71         -62.09          62.78         -34.11          19.25          50.23
     1.209              -53.26          26.62          43.69          39.76          6.617          12.67         -61.82          62.69         -33.93          19.42          50.32
     1.244              -53.28          26.52          43.75          39.75          6.534          12.62          -61.5          62.58         -33.71          19.62          50.43
      1.28              -53.31           26.4          43.81          39.73          6.436          12.56         -61.12          62.45         -33.45          19.86          50.56
     1.315              -53.35          26.25          43.89          39.72          6.318          12.49         -60.66          62.29         -33.14          20.14          50.71
     1.351              -53.39          26.08          43.98           39.7          6.176          12.41         -60.11          62.11         -32.77          20.49           50.9
     1.387              -53.44          25.87           44.1          39.67          6.002          12.31         -59.43          61.88         -32.31          20.91          51.13
     1.422              -53.51           25.6          44.24          39.64          5.787          12.18          -58.6           61.6         -31.74          21.43          51.41
     1.458              -53.59          25.27          44.42           39.6          5.519          12.02         -57.57          61.25         -31.04          22.08          51.77
     1.493              -53.69          24.86          44.64          39.56          5.181          11.82         -56.26           60.8         -30.15          22.89          52.21
     1.529              -53.82          24.33          44.92           39.5          4.752          11.57          -54.6          60.24         -29.02          23.93          52.77
     1.564              -53.99          23.66          45.28          39.42          4.203          11.24         -52.47          59.52         -27.57          25.26           53.5
       1.6               -54.2           22.8          45.74          39.32          3.498          10.83         -49.74           58.6         -25.72          26.96          54.43
     1.635              -54.47          21.69          46.33          39.19          2.597          10.29         -46.26          57.42         -23.35          29.14          55.61
     1.671              -54.81           20.3          47.08          39.03          1.465          9.624         -41.88          55.94         -20.36          31.87           57.1
     1.707              -55.23          18.61          47.98          38.84        0.08512          8.809         -36.54          54.13         -16.73          35.21          58.92
     1.742              -55.71          16.65          49.04          38.61         -1.514          7.864         -30.35          52.03         -12.52          39.07          61.02
     1.778              -56.24          14.53          50.17          38.37         -3.246           6.84         -23.65          49.77         -7.963          43.26           63.3
     1.813              -56.76          12.41          51.31          38.13         -4.978          5.817         -16.95           47.5         -3.404          47.44          65.58
     1.849              -57.24          10.45          52.36           37.9         -6.577          4.871         -10.76           45.4         0.8067          51.31          67.68
     1.884              -57.66          8.756          53.27          37.71         -7.957          4.056         -5.419          43.59          4.439          54.64           69.5
      1.92               -58.0          7.368          54.01          37.55         -9.089          3.387         -1.038          42.11           7.42          57.38          70.99
     1.955              -58.27          6.264           54.6          37.42         -9.989          2.855          2.447          40.93          9.791          59.55          72.17
     1.991              -58.48            5.4          55.07          37.32         -10.69          2.438          5.175          40.01          11.65          61.26           73.1
     2.027              -58.65          4.726          55.43          37.24         -11.24          2.113          7.301          39.29          13.09          62.58          73.83
     2.062              -58.78            4.2          55.71          37.18         -11.67           1.86          8.962          38.73          14.22          63.62          74.39
     2.098              -58.88          3.786          55.93          37.14         -12.01           1.66          10.27          38.28          15.11          64.44          74.83
     2.133              -58.96          3.458          56.11           37.1         -12.28          1.502          11.31          37.93          15.82          65.08          75.19
     2.169              -59.03          3.194          56.25          37.07         -12.49          1.375          12.14          37.65          16.38           65.6          75.47
     2.204              -59.08          2.981          56.36          37.04         -12.67          1.272          12.81          37.42          16.84          66.02           75.7
      2.24              -59.12          2.806          56.46          37.02         -12.81          1.188          13.36          37.24          17.22          66.37          75.89
     2.275              -59.16          2.662          56.53          37.01         -12.93          1.118          13.82          37.08          17.53          66.65          76.04
